<svg viewBox="0 0 50 50" fill="currentColor" xmlns="http://www.w3.org/2000/svg">
<path d="M18.3043 26.5349V31.6512H12.5652V26.5349H18.3043Z"/>
<path d="M18.3043 39.8372V34.7209H12.5652V39.8372H18.3043Z"/>
<path d="M22.1304 26.5349H27.8696V31.6512H22.1304V26.5349Z"/>
<path d="M27.8696 34.7209H22.1304V39.8372H27.8696V34.7209Z"/>
<path d="M31.6957 26.5349H37.4348V31.6512H31.6957V26.5349Z"/>
<path d="M37.4348 34.7209H31.6957V39.8372H37.4348V34.7209Z"/>
<path fill-rule="evenodd" clip-rule="evenodd" d="M15.4348 3H17.3478C19.4609 3 21.1739 4.83251 21.1739 7.09302V10.1628H29.7826V7.09302C29.7826 4.83251 31.4956 3 33.6087 3H35.5217C37.6348 3 39.3478 4.83251 39.3478 7.09302V10.1628H43.1739C45.287 10.1628 47 11.9953 47 14.2558V42.907C47 45.1675 45.287 47 43.1739 47H6.82609C4.713 47 3 45.1675 3 42.907V14.2558C3 11.9953 4.713 10.1628 6.82609 10.1628H11.6087V7.09302C11.6087 4.83251 13.3217 3 15.4348 3ZM13.5217 13.2326C13.5217 14.3628 14.3782 15.2791 15.4348 15.2791H17.3478C18.4044 15.2791 19.2609 14.3628 19.2609 13.2326V7.09302C19.2609 5.96277 18.4044 5.04651 17.3478 5.04651H15.4348C14.3782 5.04651 13.5217 5.96277 13.5217 7.09302V13.2326ZM37.4348 7.09302C37.4348 5.96277 36.5783 5.04651 35.5217 5.04651H33.6087C32.5522 5.04651 31.6957 5.96277 31.6957 7.09302V13.2326C31.6957 14.3628 32.5522 15.2791 33.6087 15.2791H35.5217C36.5783 15.2791 37.4348 14.3628 37.4348 13.2326V7.09302ZM4.91304 25.5116C4.91304 23.2511 6.62604 21.4186 8.73913 21.4186H41.2609C43.374 21.4186 45.087 23.2511 45.087 25.5116V40.8605C45.087 43.121 43.374 44.9535 41.2609 44.9535H8.73913C6.62604 44.9535 4.91304 43.121 4.91304 40.8605V25.5116Z"/>
</svg>
