<svg viewBox="0 0 50 50" fill="currentColor" xmlns="http://www.w3.org/2000/svg">
<path fill-rule="evenodd" clip-rule="evenodd" d="M21 10C15.4769 10 11 14.4771 11 20C11 25.5229 15.4769 30 21 30C26.5231 30 31 25.5229 31 20C31 14.4771 26.5224 10 21 10ZM21.4185 12.3861H20.1928V19.5244H21.4185V12.3861ZM27.547 20.1193V21.309H22.6442V20.1193H27.547Z"/>
<path fill-rule="evenodd" clip-rule="evenodd" d="M0 20.3483C0 9.10963 9.24406 0 20.6486 0C32.0516 0 41.2972 9.10963 41.2972 20.3483C41.2972 24.6311 39.9541 28.6033 37.6626 31.8806L50 44.0386L43.9506 50L31.4573 37.6883C28.314 39.596 24.6124 40.6967 20.6486 40.6967C9.24406 40.6967 0 31.587 0 20.3483ZM35.0576 20.3483C35.0576 12.5192 28.5933 6.14893 20.6486 6.14893C12.704 6.14893 6.23967 12.5192 6.23967 20.3483C6.23967 28.1775 12.704 34.5477 20.6486 34.5477C23.3192 34.5477 25.9258 33.8237 28.1861 32.4525L30.7881 30.8738L32.5243 28.3911C34.1809 26.0207 35.0576 23.2399 35.0576 20.3483Z"/>
</svg>
