<svg viewBox="0 0 50 50" fill="currentColor" xmlns="http://www.w3.org/2000/svg">
<path fill-rule="evenodd" clip-rule="evenodd" d="M0 23C0 23 11.1929 36.6023 25 36.6023C38.8071 36.6023 50 23 50 23C50 23 38.8071 29.1211 25 29.1211C11.1929 29.1211 0 23 0 23Z"/>
<path d="M5.83333 27.2507C7.77778 28.6676 11.8333 31.5015 12.5 31.5015C13.3123 31.5015 7.79067 31.5015 5.19583 35.4379C5.12861 35.5611 5.06288 35.6667 5 35.7522C5.0632 35.6447 5.12853 35.54 5.19583 35.4379C6.01937 33.9283 7.06605 29.7659 5.83333 27.2507Z"/>
<path d="M38.8344 31.2346C40.8862 29.9851 45.0565 27.3304 45.3237 26.7073C45.6493 25.9481 43.4363 31.1089 45.9314 35.1118C46.0151 35.224 46.0835 35.3278 46.1352 35.4208C46.064 35.3187 45.9961 35.2157 45.9314 35.1118C44.9057 33.7371 41.5872 31.0905 38.8344 31.2346Z"/>
<path d="M27.202 35.0766C29.5155 34.4666 34.2496 33.1162 34.6778 32.595C35.1996 31.9599 31.6526 36.2769 32.9428 40.8344C32.9922 40.9661 33.0293 41.0853 33.0531 41.1894C33.013 41.071 32.9763 40.9526 32.9428 40.8344C32.3378 39.2207 29.8833 35.7285 27.202 35.0766Z"/>
<path d="M15.5494 33.75C17.8601 34.3709 22.6374 35.5523 23.2607 35.311C24.0201 35.017 18.8578 37.0157 17.8009 41.6353C17.7809 41.7748 17.7562 41.8973 17.7271 42C17.7488 41.8767 17.7735 41.7551 17.8009 41.6353C18.0458 39.9257 17.5767 35.6554 15.5494 33.75Z"/>
</svg>
