<svg viewBox="0 0 50 50" fill="currentColor" xmlns="http://www.w3.org/2000/svg">
<path d="M27.2727 0H22.7273V7.14211C14.6035 8.16563 8.16563 14.6034 7.14211 22.7273H0V27.2727H7.14211C8.16562 35.3965 14.6035 41.8344 22.7273 42.8579V50H27.2727V42.8579C35.3965 41.8344 41.8344 35.3965 42.8579 27.2727H50V22.7273H42.8579C41.8344 14.6034 35.3965 8.16563 27.2727 7.14211V0ZM22.7273 11.1835V15.9091H27.2727V11.1835C33.1842 12.1486 37.8514 16.8158 38.8165 22.7273H34.0909V27.2727H38.8165C37.8514 33.1841 33.1842 37.8514 27.2727 38.8165V34.0909H22.7273V38.8165C16.8158 37.8514 12.1486 33.1841 11.1835 27.2727H15.9091V22.7273H11.1835C12.1486 16.8158 16.8158 12.1486 22.7273 11.1835Z"/>
</svg>
