<svg viewBox="0 0 50 50" fill="currentColor" xmlns="http://www.w3.org/2000/svg">
<path d="M25 38.6364C32.5312 38.6364 38.6364 32.5312 38.6364 25C38.6364 17.4688 32.5312 11.3636 25 11.3636C17.4688 11.3636 11.3636 17.4688 11.3636 25C11.3636 32.5312 17.4688 38.6364 25 38.6364ZM25 43.1818C35.0415 43.1818 43.1818 35.0415 43.1818 25C43.1818 14.9585 35.0415 6.81818 25 6.81818C14.9585 6.81818 6.81818 14.9585 6.81818 25C6.81818 35.0415 14.9585 43.1818 25 43.1818Z"/>
<path d="M22.7273 0H27.2727V15.9091H22.7273V0Z"/>
<path d="M22.7273 34.0909H27.2727V50H22.7273V34.0909Z"/>
<path d="M50 22.7273V27.2727H34.0909V22.7273H50Z"/>
<path d="M15.9091 22.7273V27.2727H0L1.98688e-07 22.7273H15.9091Z"/>
</svg>
