<svg viewBox="0 0 50 50" fill="currentColor" xmlns="http://www.w3.org/2000/svg">
<path fill-rule="evenodd" clip-rule="evenodd" d="M0 25.5C0 25.5 11.1929 42 25 42C38.8071 42 50 25.5 50 25.5C50 25.5 38.8071 9 25 9C11.1929 9 0 25.5 0 25.5ZM6.2959 25.5C7.41791 26.8332 8.91977 28.477 10.7096 30.1089C14.965 33.989 20.0225 37.05 25 37.05C29.9775 37.05 35.035 33.989 39.2904 30.1089C41.0802 28.477 42.5821 26.8332 43.7041 25.5C42.5821 24.1668 41.0802 22.523 39.2904 20.8911C35.035 17.011 29.9775 13.95 25 13.95C20.0225 13.95 14.965 17.011 10.7096 20.8911C8.91977 22.523 7.41791 24.1668 6.2959 25.5ZM45.8534 22.7341C45.854 22.7332 45.8541 22.733 45.8534 22.7341ZM45.8536 28.2663C45.8544 28.2674 45.8542 28.2671 45.8536 28.2663Z"/>
<path d="M35 25.5C35 30.9676 30.5228 35.4 25 35.4C19.4772 35.4 15 30.9676 15 25.5C15 20.0324 19.4772 15.6 25 15.6C30.5228 15.6 35 20.0324 35 25.5Z"/>
</svg>
