<svg viewBox="0 0 50 50" fill="currentColor" xmlns="http://www.w3.org/2000/svg">
<path d="M20.6486 6.14893C28.5933 6.14893 35.0576 12.5192 35.0576 20.3483C35.0576 23.2399 34.1809 26.0207 32.5243 28.3911L30.7881 30.8738L28.1861 32.4525C25.9258 33.8237 23.3192 34.5477 20.6486 34.5477C12.704 34.5477 6.23967 28.1775 6.23967 20.3483C6.23967 12.5192 12.704 6.14893 20.6486 6.14893ZM20.6486 0C9.24406 0 0 9.10963 0 20.3483C0 31.587 9.24406 40.6967 20.6486 40.6967C24.6124 40.6967 28.314 39.596 31.4573 37.6883L43.9506 50L50 44.0386L37.6626 31.8806C39.9541 28.6033 41.2972 24.6311 41.2972 20.3483C41.2972 9.10963 32.0516 0 20.6486 0Z"/>
</svg>
