<svg viewBox="0 0 50 50" fill="currentColor" xmlns="http://www.w3.org/2000/svg">
<path d="M12 17.5024C12 12.807 15.8058 9 20.5 9C25.1942 9 29 12.8063 29 17.5024C29 22.1985 20.5 33 20.5 33C20.5 33 12 22.1978 12 17.5024ZM15.315 16.8536C15.315 19.7511 17.6635 22.0999 20.56 22.0999C23.4572 22.0999 25.805 19.7511 25.805 16.8536C25.805 13.9562 23.4565 11.6074 20.56 11.6074C17.6635 11.6074 15.315 13.9562 15.315 16.8536Z"/>
<path d="M0 20.3483C0 9.10963 9.24406 0 20.6486 0C32.0516 0 41.2972 9.10963 41.2972 20.3483C41.2972 24.6311 39.9541 28.6033 37.6626 31.8806L50 44.0386L43.9506 50L31.4573 37.6883C28.314 39.596 24.6124 40.6967 20.6486 40.6967C9.24406 40.6967 0 31.587 0 20.3483ZM35.0576 20.3483C35.0576 12.5192 28.5933 6.14893 20.6486 6.14893C12.704 6.14893 6.23967 12.5192 6.23967 20.3483C6.23967 28.1775 12.704 34.5477 20.6486 34.5477C23.3192 34.5477 25.9258 33.8237 28.1861 32.4525L30.7881 30.8738L32.5243 28.3911C34.1809 26.0207 35.0576 23.2399 35.0576 20.3483Z"/>
</svg>
