<svg viewBox="0 0 50 50" fill="currentColor" xmlns="http://www.w3.org/2000/svg">
<path d="M22.7273 6C18.9619 6 15.9091 9.71483 15.9091 14.2965C15.9091 18.8782 22.7273 29.4189 22.7273 29.4189C22.7273 29.4189 29.5454 18.8789 29.5454 14.2965C29.5454 9.71412 26.4927 6 22.7273 6ZM22.7754 18.7827C20.452 18.7827 18.5682 16.4908 18.5682 13.6635C18.5682 10.8362 20.452 8.54428 22.7754 8.54428C25.0988 8.54428 26.9826 10.8362 26.9826 13.6635C26.9826 16.4908 25.0993 18.7827 22.7754 18.7827Z"/>
<path d="M15.6726 18.4376C17.7546 24.2543 22.7272 31.884 22.7272 31.884C22.7272 31.884 25.9851 26.8858 28.3309 21.896L28.7234 22.0032L38.8298 43.6678L21.8085 39.0175L11.7021 17.3529L15.6726 18.4376Z"/>
<path d="M0 22.0032L10.6383 17.3529L20.7447 39.0175L10.1064 44L0 22.0032Z"/>
<path d="M29.7872 22.0032L39.8936 18.0172L50 39.6818L39.8936 43.6678L29.7872 22.0032Z"/>
</svg>
